<?xml version="1.0" encoding="utf-8"?>
<!-- Generator: Adobe Illustrator 16.0.0, SVG Export Plug-In . SVG Version: 6.00 Build 0)  -->
<!DOCTYPE svg PUBLIC "-//W3C//DTD SVG 1.1//EN" "http://www.w3.org/Graphics/SVG/1.1/DTD/svg11.dtd" [
	<!ENTITY ns_extend "http://ns.adobe.com/Extensibility/1.0/">
	<!ENTITY ns_ai "http://ns.adobe.com/AdobeIllustrator/10.0/">
	<!ENTITY ns_graphs "http://ns.adobe.com/Graphs/1.0/">
	<!ENTITY ns_vars "http://ns.adobe.com/Variables/1.0/">
	<!ENTITY ns_imrep "http://ns.adobe.com/ImageReplacement/1.0/">
	<!ENTITY ns_sfw "http://ns.adobe.com/SaveForWeb/1.0/">
	<!ENTITY ns_custom "http://ns.adobe.com/GenericCustomNamespace/1.0/">
	<!ENTITY ns_adobe_xpath "http://ns.adobe.com/XPath/1.0/">
]>
<svg version="1.1" id="Capa_1" xmlns:x="&ns_extend;" xmlns:i="&ns_ai;" xmlns:graph="&ns_graphs;"
	 xmlns="http://www.w3.org/2000/svg" xmlns:xlink="http://www.w3.org/1999/xlink" x="0px" y="0px" width="142.271px" height="203px"
	 viewBox="120.537 90.172 142.271 203" enable-background="new 120.537 90.172 142.271 203" xml:space="preserve">
<metadata>
	<sfw  xmlns="&ns_sfw;">
		<slices></slices>
		<sliceSourceBounds  width="142.271" height="203" x="248.365" y="139" bottomLeftOrigin="true"></sliceSourceBounds>
	</sfw>
</metadata>
<g>
	<path d="M234.854,146.781c-14.394-23.758-30.402-44.32-38.665-54.462c-1.105-1.358-2.765-2.146-4.516-2.146
		c-1.751,0-3.41,0.789-4.517,2.147c-8.262,10.146-24.271,30.714-38.665,54.474c-18.549,30.62-27.954,55.937-27.954,75.243
		c0,39.225,31.911,71.136,71.135,71.136c39.225,0,71.136-31.911,71.136-71.136C262.808,202.716,253.403,177.397,234.854,146.781z
		 M201.434,266.971c-4.154,1.063-8.465,1.601-12.818,1.601c-26.576,0-48.197-20.085-48.197-44.772
		c0-5.961,1.573-12.924,4.673-20.697c0.524-1.313,2.016-2.063,3.487-1.745c1.47,0.317,2.458,1.599,2.306,2.992
		c-0.181,1.667-0.273,3.296-0.273,4.839c0,26.866,21.648,49.364,50.356,52.33c1.429,0.147,2.544,1.216,2.657,2.548
		C203.74,265.399,202.819,266.617,201.434,266.971z"/>
</g>
</svg>
